<?xml version="1.0" ?><svg data-name="Layer 1" id="Layer_1" viewBox="0 0 256 256" xmlns="http://www.w3.org/2000/svg"><defs><style>.cls-1{fill:none;stroke:#000;stroke-miterlimit:10;stroke-width:8px;}</style></defs><title/><path class="cls-1" d="M16.17,170H229.38A18.62,18.62,0,0,0,248,151.33h0a18.62,18.62,0,0,0-13.91-18l-9.4-2.46A192.87,192.87,0,0,1,165,103.74l-52.9-36a9.92,9.92,0,0,0-12.87,1.5l-8.3,9a39.38,39.38,0,0,1-59.25-1.37h0a22.2,22.2,0,0,0-17-8h0A6.61,6.61,0,0,0,8,75.56v86.22A8.17,8.17,0,0,0,16.17,170Z"/><path class="cls-1" d="M13,170v10.5a9.5,9.5,0,0,0,9.5,9.5H95l8.5-8H122l7,7h60.78a64.84,64.84,0,0,0,42.51-15.88l5.09-4.92"/><path class="cls-1" d="M8,93.45c13.21,5.45,22,.81,26.23-13.73"/><line class="cls-1" x1="131.15" x2="109.76" y1="80.73" y2="102.12"/><line class="cls-1" x1="147.15" x2="127.63" y1="87.73" y2="107.25"/><line class="cls-1" x1="158.53" x2="143.63" y1="99.35" y2="114.25"/><path class="cls-1" d="M54.33,107.25s1.16,17.6,24.34,16.7c32.08-1.25,12,21,66.33,28"/></svg>